# xmcd
#
# Track frame offsets: 
#        150
#        18955
#        37454
#        55619
#        72969
#        90082
#        109382
#        123611
#        142967
#        156297
#        163574
#
# Disc length: 2677 seconds
#
# Revision: 0
# Processed by: cddbd v1.5.2PL0 Copyright (c) Steve Scherf et al.
# Submitted via: ExactAudioCopy v1.0b4
#
DISCID=900a730b
DTITLE=Leslie West - Soundcheck
DYEAR=2015
DGENRE=Blues Rock
TTITLE0=Left By The Roadside To Die
TTITLE1=Give Me One Reason
TTITLE2=Here For The Party
TTITLE3=You Are My Sunshine
TTITLE4=Empty Promises - Nothin Sacred
TTITLE5=A Stern Warning
TTITLE6=People Get Ready
TTITLE7=Going Down
TTITLE8=Stand By Me
TTITLE9=Eleanor Rigby
TTITLE10=Spoonful
EXTD=
EXTT0=
EXTT1=
EXTT2=
EXTT3=
EXTT4=
EXTT5=
EXTT6=
EXTT7=
EXTT8=
EXTT9=
EXTT10=
PLAYORDER=
